<svg width="24" height="24" viewBox="0 0 24 24" fill="none" xmlns="http://www.w3.org/2000/svg">
<path d="M20 6.00004H17.82C17.93 5.69004 18 5.35004 18 5.00004C18.0011 4.35486 17.7939 3.72657 17.4092 3.20863C17.0245 2.69069 16.4829 2.31077 15.8649 2.12538C15.2469 1.93999 14.5856 1.95903 13.9794 2.17969C13.3731 2.40034 12.8542 2.81081 12.5 3.35004L12 4.02004L11.5 3.34004C10.96 2.54004 10.05 2.00004 9 2.00004C7.34 2.00004 6 3.34004 6 5.00004C6 5.35004 6.07 5.69004 6.18 6.00004H4C2.89 6.00004 2.01 6.89004 2.01 8.00004L2 19C2 20.11 2.89 21 4 21H20C21.11 21 22 20.11 22 19V8.00004C22 6.89004 21.11 6.00004 20 6.00004ZM15 4.00004C15.55 4.00004 16 4.45004 16 5.00004C16 5.55004 15.55 6.00004 15 6.00004C14.45 6.00004 14 5.55004 14 5.00004C14 4.45004 14.45 4.00004 15 4.00004ZM9 4.00004C9.55 4.00004 10 4.45004 10 5.00004C10 5.55004 9.55 6.00004 9 6.00004C8.45 6.00004 8 5.55004 8 5.00004C8 4.45004 8.45 4.00004 9 4.00004ZM20 19H4V17H20V19ZM20 14H4V8.00004H9.08L7 10.83L8.62 12L12 7.40004L15.38 12L17 10.83L14.92 8.00004H20V14Z" fill="#FF7235"/>
</svg>
