<svg width="1295" height="341" viewBox="0 0 1295 341" fill="none" xmlns="http://www.w3.org/2000/svg">
<path d="M1277.87 12.7323C1282.04 12.7323 1286.04 14.3889 1288.99 17.3378C1291.94 20.2867 1293.59 24.2863 1293.59 28.4566V177.59C1293.59 181.76 1291.94 185.76 1288.99 188.709C1286.04 191.658 1282.04 193.314 1277.87 193.314H1084.38C1080.21 193.314 1076.21 191.658 1073.26 188.709C1070.31 185.76 1068.66 181.76 1068.66 177.59V28.4566C1068.66 24.2863 1070.31 20.2867 1073.26 17.3378C1076.21 14.3889 1080.21 12.7323 1084.38 12.7323H1277.87ZM1277.87 11.3242H1084.38C1079.84 11.3289 1075.48 13.1354 1072.27 16.3473C1069.06 19.5593 1067.25 23.9143 1067.25 28.4566V177.59C1067.25 182.132 1069.06 186.487 1072.27 189.699C1075.48 192.911 1079.84 194.718 1084.38 194.722H1277.87C1282.41 194.718 1286.76 192.911 1289.98 189.699C1293.19 186.487 1295 182.132 1295 177.59V28.4566C1295 23.9143 1293.19 19.5593 1289.98 16.3473C1286.76 13.1354 1282.41 11.3289 1277.87 11.3242Z" fill="white"/>
<path d="M1277.87 12.7319H1084.38C1075.7 12.7319 1068.66 19.772 1068.66 28.4563V177.59C1068.66 186.274 1075.7 193.314 1084.38 193.314H1277.87C1286.55 193.314 1293.59 186.274 1293.59 177.59V28.4563C1293.59 19.772 1286.55 12.7319 1277.87 12.7319Z" fill="#F5EBDD"/>
<path d="M1079.68 119.04C1083.86 119.04 1087.85 120.697 1090.8 123.645C1093.75 126.594 1095.41 130.594 1095.41 134.764V283.898C1095.41 288.068 1093.75 292.067 1090.8 295.016C1087.85 297.965 1083.86 299.622 1079.68 299.622H886.198C882.028 299.622 878.028 297.965 875.079 295.016C872.13 292.067 870.474 288.068 870.474 283.898V134.764C870.474 130.594 872.13 126.594 875.079 123.645C878.028 120.697 882.028 119.04 886.198 119.04H1079.68ZM1079.68 117.632H886.198C881.656 117.636 877.301 119.443 874.089 122.655C870.877 125.867 869.07 130.222 869.066 134.764V283.898C869.07 288.44 870.877 292.795 874.089 296.007C877.301 299.219 881.656 301.025 886.198 301.03H1079.68C1084.23 301.025 1088.58 299.219 1091.79 296.007C1095.01 292.795 1096.81 288.44 1096.82 283.898V134.764C1096.81 130.222 1095.01 125.867 1091.79 122.655C1088.58 119.443 1084.23 117.636 1079.68 117.632Z" fill="white"/>
<path d="M1079.68 119.04H886.198C877.514 119.04 870.474 126.08 870.474 134.764V283.898C870.474 292.582 877.514 299.622 886.198 299.622H1079.68C1088.37 299.622 1095.41 292.582 1095.41 283.898V134.764C1095.41 126.08 1088.37 119.04 1079.68 119.04Z" fill="#F5EBDD"/>
<path d="M1036.42 129.812C1036.42 129.667 1036.42 129.46 1036.42 129.245L1036.59 129.118L1036.43 129.083C1036.43 126.056 1036.17 117.065 1033.23 110.215C1030.62 104.129 1027.01 101.316 1024.51 102.39C1022.01 103.464 1021.56 108.022 1024.16 114.098C1025.61 117.484 1027.89 120.755 1030.09 123.451C1025.66 119.251 1019.61 114.045 1014.15 111.18C1006.76 107.308 1001.01 107.424 999.412 110.458C997.818 113.493 1001 118.298 1008.38 122.173C1013.19 124.697 1019.75 126.566 1025.32 127.837C1022.33 127.734 1019.34 127.987 1016.41 128.59C1009.95 130.041 1006.53 133.071 1007.12 135.726C1007.72 138.38 1012.11 139.658 1018.57 138.207C1025.77 136.592 1033.13 131.625 1035.66 129.798L1036.11 129.865C1036.29 130.037 1036.4 130.132 1036.4 130.132C1036.4 130.132 1036.4 130.051 1036.4 129.907H1036.5L1036.42 129.812Z" fill="#3EC1F3"/>
<path d="M1107.49 161.819L1107.38 161.714V161.932L1107.49 161.819Z" fill="#3EC1F3"/>
<path d="M1099.06 170.345L1098.97 153.382L1090.31 144.811L1090.48 179.005L1099.06 170.345Z" fill="#3EC1F3"/>
<path d="M1039.24 123.665L1039.52 180.723L1048.18 189.294L1047.81 115.006L1039.24 123.665Z" fill="#3EC1F3"/>
<path d="M1010.85 152.34L1031.11 172.391L1030.9 132.082L1010.85 152.34Z" fill="#3EC1F3"/>
<path d="M1082.15 187.418L1081.9 136.482L1073.23 127.907L1073.58 196.081L1082.15 187.418Z" fill="#3EC1F3"/>
<path d="M1064.82 119.579L1056.16 111.007L1056.6 197.627L1064.4 205.35L1065.25 204.495L1064.82 119.579Z" fill="#3EC1F3"/>
<path d="M1030.9 132.082L1031.11 172.391L1039.52 180.723L1039.24 123.666L1030.9 132.082Z" fill="#4756DF"/>
<path d="M1053.94 108.811L1047.81 115.006L1048.18 189.295L1056.6 197.627L1056.16 111.007L1053.94 108.811Z" fill="#4756DF"/>
<path d="M1073.58 196.081L1073.23 127.907L1064.82 119.579L1065.25 204.494L1073.58 196.081Z" fill="#4756DF"/>
<path d="M1090.48 179.005L1090.31 144.811L1081.9 136.482L1082.15 187.418L1090.48 179.005Z" fill="#4756DF"/>
<path d="M1107.38 161.932V161.714L1098.97 153.382L1099.06 170.345L1107.38 161.932Z" fill="#4756DF"/>
<path d="M1067.3 122.215L1024.29 165.664" stroke="black" stroke-width="4" stroke-linejoin="round"/>
<path d="M1056.17 106.559L1008.62 154.594L1021.54 167.38L1069.09 119.345L1056.17 106.559Z" fill="#4756DF"/>
<path d="M1043.31 184.162C1043.31 184.162 1047.89 169.025 1045.07 166.561C1041.67 163.587 1035.92 173.249 1031.28 184.866C1026.41 197.07 1012.27 231.683 1011.57 234.147C1011.57 234.147 987.49 220.982 976.722 216.195C967.217 211.971 955.64 210.436 955.64 210.436L954.168 201.597C954.168 201.597 961.043 204.061 966.936 200.615C972.828 197.169 974.303 190.79 972.339 180.969C971.174 175.15 971.216 167.945 970.227 161.52C966.305 162.182 960.561 160.834 960.561 160.834C952.7 169.673 944.368 171.637 944.368 171.637C938.965 165.745 929.14 165.745 927.669 174.101C926.039 183.342 937.49 185.887 937.49 185.887C937.49 185.887 939.82 199.298 934.892 212.675C928.045 231.261 900.444 236.193 889.13 228.163C868.714 242.596 886.775 286.446 903.915 307.014C917.995 323.91 967.981 315.11 967.981 315.11C967.981 315.11 973.613 319.334 980.301 320.742C992.27 344.327 997.198 337.639 997.198 337.639C997.198 337.639 1001.42 342.215 1004.59 337.287C1010.93 337.639 1010.57 333.767 1004.94 320.39C1011.28 328.135 1017.48 328.159 1017.61 326.023C1017.97 320.39 999.31 300.678 987.694 295.75C978.967 292.046 974.669 290.821 974.669 290.821L972.909 262.308C972.909 262.308 1010.26 282.824 1027.82 273.221C1050.35 260.9 1059.5 200.354 1059.5 200.354L1043.31 184.162Z" fill="#EAA58B"/>
<path d="M934.892 212.675C939.82 199.299 937.469 185.88 937.469 185.88C937.469 185.88 926.018 183.335 927.648 174.095C929.119 165.745 938.944 165.745 944.347 171.63C944.347 171.63 952.693 169.666 960.54 160.827C960.54 160.827 966.284 162.175 970.206 161.514C969.519 157.089 968.344 153.023 965.939 150.02C960.047 142.656 943.84 137.742 931.073 147.074C918.305 156.406 919.284 171.63 919.777 177.523C919.777 177.523 897.695 172.116 885.948 188.731C871.516 209.148 889.116 228.157 889.116 228.157C900.444 236.193 928.045 231.261 934.892 212.675Z" fill="#30242A"/>
<path d="M973.525 272.295L972.909 262.309H972.941L969.995 213.675C966.744 212.67 963.442 211.839 960.103 211.186L958.477 244.708H931.02L920.59 227.759C916.867 229.596 912.88 230.839 908.773 231.444L924.458 270.32L930.316 284.837C930.316 284.837 943.692 285.541 955.661 287.302C967.629 289.062 974.669 290.822 974.669 290.822L973.525 272.295Z" fill="#FF7235"/>
<path d="M1043.84 185.035C1043.55 185.953 1043.25 186.848 1042.96 187.682C1042.96 187.682 1051.94 198.066 1046.3 211.443" stroke="#BB7259" stroke-width="4" stroke-miterlimit="10" stroke-linecap="round"/>
<path d="M1010.75 233.834L1007.05 243.3" stroke="#BB7259" stroke-width="4" stroke-miterlimit="10" stroke-linecap="round"/>
<path d="M1006.35 322.031C1004.86 318.655 1003.02 314.705 1001.39 311.822" stroke="#BB7259" stroke-width="4" stroke-miterlimit="10" stroke-linecap="round"/>
<path d="M994.787 315.332C999.011 322.77 1002.32 331.099 1004.4 336.949" stroke="#BB7259" stroke-width="4" stroke-miterlimit="10" stroke-linecap="round"/>
<path d="M988.218 319.5C991.386 325.315 994.47 332.091 996.758 337.417" stroke="#BB7259" stroke-width="4" stroke-miterlimit="10" stroke-linecap="round"/>
<path d="M974.141 276.565L927.324 276.213" stroke="#724342" stroke-width="4" stroke-miterlimit="10" stroke-linecap="round"/>
<path d="M913.131 298.794C910.846 298.019 908.399 297.85 906.03 298.304C903.66 298.758 901.449 299.82 899.613 301.385C901.039 303.402 902.479 305.293 903.915 307.017C907.808 311.689 914.444 314.41 922.008 315.864C923.927 308.69 920.107 301.195 913.131 298.794Z" fill="#CA7358"/>
<path d="M1027.82 273.221C1030.88 271.549 1033.69 268.997 1036.27 265.808C1034.6 263.296 1032.15 261.405 1029.3 260.426C1021.99 257.916 1013.99 261.929 1011.43 269.388C1010.76 271.333 1010.51 273.398 1010.7 275.446C1017.09 276.199 1023.16 275.773 1027.82 273.221Z" fill="#CA7358"/>
<path d="M908.769 231.444C901.187 232.574 893.781 231.465 889.13 228.164C874.293 238.654 879.778 264.674 890.461 286.01L924.458 270.321L908.769 231.444Z" fill="#FFBE21"/>
<path d="M934.892 212.675C932.35 219.571 926.951 224.587 920.59 227.759L931.02 244.708H958.477L960.103 211.204C957.4 210.672 955.64 210.436 955.64 210.436L954.957 206.339H936.729C936.263 208.491 935.649 210.608 934.892 212.675Z" fill="#FFBE21"/>
<path d="M976.718 216.195C974.526 215.235 972.281 214.4 969.995 213.692L972.941 262.326C977.617 264.802 982.425 267.022 987.342 268.976L1001.77 228.868C993.861 224.643 983.016 219.011 976.718 216.195Z" fill="#FFBE21"/>
<path d="M884.194 246.136C893.622 240.692 897.432 229.64 892.704 221.451C887.976 213.262 876.5 211.036 867.072 216.48C857.643 221.923 853.833 232.975 858.561 241.164C863.289 249.353 874.765 251.579 884.194 246.136Z" fill="#30242A"/>
<path d="M880.506 212.146C880.506 212.146 882.97 226.931 894.939 231.507" stroke="black" stroke-width="4" stroke-linecap="round" stroke-linejoin="round"/>
<path d="M1146.63 125.2L1148.04 135.761" stroke="#F5EBDC" stroke-width="4" stroke-miterlimit="10" stroke-linecap="round"/>
<path d="M1263.67 112.704C1263.67 112.704 1279.51 94.0472 1261.91 78.2067C1251.15 68.5264 1238.23 71.2228 1238.23 71.2228C1238.72 65.3301 1239.7 50.1021 1226.94 40.7738C1214.17 31.4454 1197.96 36.356 1192.06 43.7201C1186.17 51.0842 1187.65 64.8408 1185.68 74.6619C1183.72 84.4831 1185.19 90.8545 1191.08 94.3077C1196.98 97.7609 1203.85 95.2898 1203.85 95.2898L1202.38 104.129C1202.38 104.129 1190.8 105.664 1181.3 109.888C1170.53 114.675 1146.45 127.84 1146.45 127.84C1145.75 125.376 1141.87 85.2469 1140.11 72.2225C1138.77 62.2993 1134.13 50.0457 1130.61 52.5098C1127.2 54.9 1128.5 62.7182 1128.5 62.7182L1110.55 81.3748C1110.55 81.3748 1101.67 145.346 1122.87 162.69C1138.35 175.362 1178.84 154.945 1178.84 154.945L1173.56 193.315H1221.86C1221.86 193.315 1212.8 195.722 1193.97 204.227C1172.15 214.083 1159.48 241.54 1160.88 243.652C1162.29 245.764 1166.52 244.004 1172.15 236.964C1167.22 255.269 1172.15 253.861 1175.32 253.509C1178.54 258.141 1182.71 252.453 1182.71 252.453C1182.71 252.453 1188.34 257.733 1197.14 233.092C1201.14 231.207 1204.82 228.713 1208.05 225.7C1208.05 225.7 1264.02 222.18 1274.94 202.467C1285.85 182.754 1278.46 131.36 1263.67 112.704Z" fill="#A15842"/>
<path d="M1190.51 70.2156C1191.31 70.2156 1191.97 69.5616 1191.97 68.7548C1191.97 67.948 1191.31 67.2939 1190.51 67.2939C1189.7 67.2939 1189.04 67.948 1189.04 68.7548C1189.04 69.5616 1189.7 70.2156 1190.51 70.2156Z" fill="#30242A"/>
<path d="M930.14 284.31L922.044 283.958" stroke="#BB7259" stroke-width="4" stroke-miterlimit="10" stroke-linecap="round"/>
<path d="M954.045 202.421C951.918 201.691 949.854 200.788 947.874 199.721" stroke="#BB7259" stroke-width="4" stroke-miterlimit="10" stroke-linecap="round"/>
<path d="M919.242 177.428C919.509 180.114 919.872 183.458 920.224 186.098" stroke="black" stroke-width="4" stroke-linecap="round" stroke-linejoin="round"/>
<path d="M952.302 276.185C952.302 276.185 944.146 264.642 947.934 263.125C950.993 261.9 951.866 270.88 952.302 276.185Z" stroke="#724342" stroke-width="4" stroke-linecap="round" stroke-linejoin="round"/>
<path d="M952.559 276.389C952.559 276.389 956.569 267.131 959.086 268.613C961.117 269.81 955.759 273.971 952.559 276.389Z" stroke="#724342" stroke-width="4" stroke-linecap="round" stroke-linejoin="round"/>
<path d="M956.442 210.683L957.069 214.435" stroke="#BB7259" stroke-width="4" stroke-miterlimit="10" stroke-linecap="round"/>
<path d="M938.919 177.984L934.536 175.548" stroke="#BB7259" stroke-width="4" stroke-miterlimit="10" stroke-linecap="round"/>
<path d="M959.839 186.221C960.089 190.84 964.834 191.223 965.996 187.981L959.839 186.221Z" stroke="#BB7259" stroke-width="4" stroke-linecap="round" stroke-linejoin="round"/>
<path d="M957.005 178.107C957.812 178.107 958.466 177.453 958.466 176.646C958.466 175.84 957.812 175.186 957.005 175.186C956.199 175.186 955.544 175.84 955.544 176.646C955.544 177.453 956.199 178.107 957.005 178.107Z" fill="#724342"/>
<path d="M967.868 175.467C968.675 175.467 969.329 174.813 969.329 174.006C969.329 173.199 968.675 172.545 967.868 172.545C967.062 172.545 966.408 173.199 966.408 174.006C966.408 174.813 967.062 175.467 967.868 175.467Z" fill="#724342"/>
<path d="M964.13 178.432C964.482 179.364 964.813 180.389 964.707 180.773C964.558 181.233 964.256 181.629 963.852 181.895" stroke="#BB7259" stroke-width="4" stroke-miterlimit="10" stroke-linecap="round"/>
<path d="M951.215 139.358L953.077 141.403L954.309 142.762C955.094 145.508 949.381 149.883 941.439 152.594C933.498 155.304 926.303 155.329 925.247 152.675L925.395 150.844L925.62 148.088C928.601 148.792 933.776 148.225 939.313 146.328C944.85 144.43 949.293 141.752 951.215 139.358Z" fill="#FFB494"/>
<path d="M937.166 140.069C941.32 138.661 944.861 136.781 947.184 134.922L951.215 139.358C949.293 141.751 944.843 144.448 939.303 146.338C933.762 148.228 928.591 148.802 925.609 148.098L926.092 142.114C929.066 142.167 933.012 141.484 937.166 140.069Z" fill="#FF7235"/>
<path d="M942.869 130.178L947.184 134.923C944.861 136.781 941.32 138.654 937.166 140.069C933.012 141.484 929.07 142.181 926.092 142.118L926.606 135.722C932.354 135.028 937.893 133.139 942.869 130.178Z" fill="#FFB494"/>
<path d="M932.889 127.53C934.768 126.894 936.6 126.126 938.37 125.231L942.869 130.177C937.893 133.139 932.354 135.027 926.606 135.721L927.148 129.061C929.095 128.686 931.013 128.174 932.889 127.53Z" fill="#FF7235"/>
<path d="M927.148 129.062L928.348 114.207L938.373 125.232C936.603 126.127 934.772 126.895 932.893 127.531C931.016 128.175 929.096 128.686 927.148 129.062Z" fill="#FFB494"/>
<path d="M927.5 117.15C930.494 117.15 932.921 114.723 932.921 111.729C932.921 108.735 930.494 106.308 927.5 106.308C924.506 106.308 922.079 108.735 922.079 111.729C922.079 114.723 924.506 117.15 927.5 117.15Z" fill="#FF7235"/>
<path d="M936.124 191.906C938.554 191.906 940.524 189.936 940.524 187.506C940.524 185.075 938.554 183.105 936.124 183.105C933.694 183.105 931.724 185.075 931.724 187.506C931.724 189.936 933.694 191.906 936.124 191.906Z" fill="#F4E6D8"/>
<path d="M1211.97 210.511L1212.88 212.535L1218.3 224.683C1234.98 222.62 1266.97 216.861 1274.94 202.467C1285.85 182.754 1278.46 131.361 1263.67 112.704C1251.35 126.253 1232.3 122.56 1224.66 111.296C1223.25 111.646 1221.82 111.881 1220.37 112C1218.12 112.208 1215.85 112.119 1213.61 111.733C1210.94 111.286 1208.41 110.219 1206.22 108.617C1203.44 106.523 1202.42 104.256 1202.42 104.256L1201.95 104.189C1199.79 104.509 1189.73 106.139 1181.3 109.888C1170.53 114.675 1146.45 127.841 1146.45 127.841C1146.13 126.735 1145.18 118.03 1144.06 107.6L1130.39 112.88L1128.91 113.454L1121.84 116.193L1108.98 121.17C1109.9 137.743 1113.36 154.91 1122.87 162.69C1138.35 175.362 1178.84 154.946 1178.84 154.946L1173.56 193.315H1221.86C1221.86 193.315 1216.91 194.635 1206.72 198.753L1209.07 204.002L1211.97 210.511Z" fill="#FFB494"/>
<path d="M1145.39 147.201C1141.1 147.201 1136.98 148.907 1133.95 151.943C1130.91 154.98 1129.2 159.099 1129.2 163.393C1129.2 164.235 1129.27 165.075 1129.4 165.907C1138.63 168.371 1151.31 165.477 1161.53 162.034C1161.19 157.99 1159.34 154.221 1156.35 151.474C1153.36 148.726 1149.45 147.201 1145.39 147.201Z" fill="#FF7235"/>
<path d="M1129.55 117.984C1129.55 116.454 1129.34 114.933 1128.91 113.464L1121.84 116.203L1108.98 121.18C1109.22 125.429 1109.62 129.716 1110.25 133.874C1112.6 134.333 1115.01 134.267 1117.33 133.681C1119.65 133.095 1121.81 132.004 1123.65 130.485C1125.5 128.966 1126.98 127.057 1128 124.896C1129.03 122.734 1129.55 120.374 1129.55 117.984Z" fill="#FF7235"/>
<path d="M1176.37 129.248C1179.07 129.247 1181.73 128.572 1184.1 127.283C1186.47 125.995 1188.48 124.135 1189.95 121.872C1191.42 119.608 1192.3 117.014 1192.51 114.324C1192.72 111.634 1192.25 108.935 1191.16 106.47C1187.79 107.359 1184.49 108.502 1181.3 109.888C1176.34 112.091 1168.57 116.069 1161.62 119.723C1162.9 122.562 1164.97 124.971 1167.59 126.66C1170.21 128.35 1173.26 129.248 1176.37 129.248Z" fill="#FF7235"/>
<path d="M1215.8 166.21C1224.74 166.21 1231.99 158.96 1231.99 150.017C1231.99 141.074 1224.74 133.825 1215.8 133.825C1206.85 133.825 1199.6 141.074 1199.6 150.017C1199.6 158.96 1206.85 166.21 1215.8 166.21Z" fill="#FF7235"/>
<path d="M1184.12 175.714C1181.13 175.713 1178.21 176.541 1175.67 178.104L1173.56 193.314H1200.24C1200.28 192.85 1200.31 192.382 1200.31 191.906C1200.31 187.612 1198.6 183.493 1195.57 180.457C1192.53 177.42 1188.41 175.714 1184.12 175.714Z" fill="#FF7235"/>
<path d="M1242.23 121.286C1242.23 121.592 1242.2 121.898 1242.2 122.208C1242.2 125.8 1243.4 129.289 1245.6 132.127C1247.8 134.965 1250.88 136.99 1254.36 137.885C1257.84 138.779 1261.52 138.491 1264.81 137.066C1268.11 135.642 1270.84 133.161 1272.57 130.016C1270.08 123.035 1267.07 116.991 1263.67 112.704C1257.46 119.536 1249.53 121.983 1242.23 121.286Z" fill="#FF7235"/>
<path d="M1257.33 189.794C1257.34 193.896 1258.89 197.844 1261.69 200.841C1264.49 203.839 1268.32 205.663 1272.41 205.945C1273.39 204.887 1274.23 203.72 1274.94 202.467C1278.53 195.983 1280.13 186.067 1280.15 175.01C1277.68 173.905 1274.98 173.435 1272.28 173.642C1269.59 173.85 1266.99 174.728 1264.72 176.198C1262.45 177.668 1260.59 179.682 1259.3 182.057C1258.01 184.432 1257.33 187.092 1257.33 189.794Z" fill="#FF7235"/>
<path d="M1223.19 205.986C1219 205.982 1214.98 207.604 1211.97 210.51L1212.88 212.534L1218.3 224.682C1225.37 223.823 1232.39 222.608 1239.34 221.042C1239.05 216.955 1237.22 213.13 1234.23 210.336C1231.23 207.542 1227.29 205.988 1223.19 205.986Z" fill="#FF7235"/>
<path d="M1250.47 183.282C1241.01 186.507 1228.25 190.428 1220.37 192.963" stroke="#F5EBDC" stroke-width="4" stroke-miterlimit="10" stroke-linecap="round"/>
<path d="M1240.44 149.066L1243.78 185.394" stroke="#F5EBDC" stroke-width="4" stroke-miterlimit="10" stroke-linecap="round"/>
<path d="M1171.2 237.886C1172.36 234.32 1174.82 226.995 1176.98 222.31" stroke="#30242A" stroke-width="4" stroke-miterlimit="10" stroke-linecap="round"/>
<path d="M1183.85 225.256C1178.95 235.816 1176.07 247.855 1175 252.847" stroke="#30242A" stroke-width="4" stroke-miterlimit="10" stroke-linecap="round"/>
<path d="M1190.73 228.691C1187.56 235.999 1184.79 245.975 1183.23 252.114" stroke="#30242A" stroke-width="4" stroke-miterlimit="10" stroke-linecap="round"/>
<path d="M1179.97 142.431L1178.06 155.209" stroke="#F5EBDC" stroke-width="4" stroke-miterlimit="10" stroke-linecap="round"/>
<path d="M1261.91 78.2067C1251.15 68.5264 1238.23 71.2228 1238.23 71.2228C1238.72 65.3301 1239.7 50.1021 1226.94 40.7738C1214.17 31.4454 1197.96 36.356 1192.06 43.7201C1189.66 46.7228 1188.48 50.7885 1187.8 55.2133C1191.72 55.8751 1197.47 54.5269 1197.47 54.5269C1205.33 63.3659 1213.66 65.3301 1213.66 65.3301C1219.06 59.4374 1228.89 59.4374 1230.36 67.7942C1231.99 77.0345 1220.54 79.5795 1220.54 79.5795C1220.54 79.5795 1218.11 92.7483 1222.12 106.023C1222.69 107.9 1223.54 109.68 1224.65 111.303C1232.29 122.567 1251.34 126.263 1263.66 112.711C1264.27 111.961 1264.83 111.175 1265.35 110.359C1268.92 104.85 1275.75 90.6609 1261.91 78.2067Z" fill="#30242A"/>
<path d="M1203.8 95.9132C1206.08 95.2466 1208.27 94.3255 1210.34 93.1675" stroke="#30242A" stroke-width="4" stroke-miterlimit="10" stroke-linecap="round"/>
<path d="M1238.78 71.1206C1238.51 73.8065 1238.15 77.1506 1237.8 79.7907" stroke="black" stroke-width="4" stroke-miterlimit="10" stroke-linecap="round"/>
<path d="M1219.1 71.6766L1223.48 69.2407" stroke="#30242A" stroke-width="4" stroke-miterlimit="10" stroke-linecap="round"/>
<path d="M1194.19 83.1024C1195 83.6058 1198.01 83.9965 1199.24 81.6768" stroke="#30242A" stroke-width="4" stroke-miterlimit="10" stroke-linecap="round"/>
<path d="M1202.13 72.1522C1202.93 72.1522 1203.59 71.4981 1203.59 70.6913C1203.59 69.8845 1202.93 69.2305 1202.13 69.2305C1201.32 69.2305 1200.66 69.8845 1200.66 70.6913C1200.66 71.4981 1201.32 72.1522 1202.13 72.1522Z" fill="#30242A"/>
<path d="M1194.01 74.2505C1193.79 75.222 1193.6 76.2816 1193.75 76.6442C1193.96 77.0812 1194.32 77.4337 1194.75 77.6439" stroke="#30242A" stroke-width="4" stroke-miterlimit="10" stroke-linecap="round"/>
<path d="M1193.43 70.1207C1194.31 66.3329 1192.26 62.6217 1188.85 61.8316C1185.44 61.0414 1181.96 63.4715 1181.09 67.2593C1180.21 71.0471 1182.26 74.7582 1185.67 75.5484C1189.08 76.3386 1192.55 73.9085 1193.43 70.1207Z" stroke="black" stroke-width="4" stroke-miterlimit="10" stroke-linecap="round"/>
<path d="M1208.92 72.5831C1209.8 68.7953 1207.75 65.0842 1204.34 64.294C1200.93 63.5038 1197.45 65.9339 1196.58 69.7217C1195.7 73.5095 1197.75 77.2206 1201.16 78.0108C1204.57 78.801 1208.04 76.3709 1208.92 72.5831Z" stroke="black" stroke-width="4" stroke-miterlimit="10" stroke-linecap="round"/>
<path d="M1193.8 69.582L1196.26 69.934" stroke="black" stroke-width="4" stroke-miterlimit="10" stroke-linecap="round"/>
<path d="M1124.1 64.6538C1124.1 64.6538 1130.79 70.286 1131.49 71.694C1131.49 71.694 1120.58 82.9584 1129.03 96.6869" stroke="#30242A" stroke-width="4" stroke-miterlimit="10" stroke-linecap="round"/>
<path d="M1159.94 28.1881C1160.75 26.8661 1160.33 25.1388 1159.01 24.3301C1157.69 23.5213 1155.96 23.9374 1155.15 25.2594L1101.83 112.419C1101.02 113.741 1101.44 115.469 1102.76 116.277C1104.08 117.086 1105.81 116.67 1106.62 115.348L1159.94 28.1881Z" fill="#30242A"/>
<path d="M1164.79 5.54064L1170.85 0.689913C1171.34 0.293246 1171.95 0.0577781 1172.58 0.0152753C1173.21 -0.0272275 1173.84 0.125281 1174.39 0.452228C1174.93 0.779176 1175.36 1.26483 1175.62 1.84364C1175.87 2.42244 1175.95 3.06656 1175.83 3.68905L1174.38 11.3242C1174.26 11.9257 1174.33 12.5477 1174.57 13.1115C1174.81 13.6754 1175.21 14.1559 1175.72 14.4923L1182.2 18.7587C1182.73 19.1063 1183.14 19.6081 1183.38 20.1964C1183.61 20.7846 1183.66 21.4311 1183.52 22.0485C1183.38 22.666 1183.05 23.2246 1182.58 23.6491C1182.11 24.0737 1181.52 24.3436 1180.89 24.4226L1173.2 25.4047C1172.6 25.4816 1172.02 25.737 1171.56 26.1386C1171.1 26.5402 1170.76 27.07 1170.6 27.6611L1168.55 35.1448C1168.38 35.7553 1168.03 36.2997 1167.54 36.7047C1167.06 37.1097 1166.46 37.356 1165.83 37.4104C1165.2 37.4649 1164.56 37.3248 1164.01 37.0092C1163.47 36.6935 1163.03 36.2173 1162.76 35.6447L1159.45 28.6044C1159.19 28.0528 1158.77 27.5913 1158.24 27.2781C1157.72 26.9649 1157.11 26.814 1156.5 26.8444L1148.76 27.1964C1148.12 27.2363 1147.49 27.0783 1146.94 26.7441C1146.4 26.4099 1145.97 25.9157 1145.72 25.3293C1145.47 24.7428 1145.4 24.0927 1145.53 23.4679C1145.66 22.8431 1145.98 22.2741 1146.45 21.8388L1152.11 16.5234C1152.55 16.1037 1152.87 15.561 1153.01 14.964C1153.14 14.3669 1153.1 13.7422 1152.89 13.1687L1150.15 5.90673C1149.92 5.31301 1149.89 4.66462 1150.04 4.04914C1150.2 3.43367 1150.54 2.88074 1151.02 2.46505C1151.5 2.04935 1152.09 1.79092 1152.72 1.72465C1153.36 1.65837 1153.99 1.78744 1154.55 2.09444L1161.35 5.83633C1161.89 6.13215 1162.5 6.26194 1163.11 6.20931C1163.73 6.15668 1164.31 5.92399 1164.79 5.54064Z" fill="#3EC1F3"/>
<path d="M1128.5 62.7177C1126.03 60.6056 1121.3 59.2363 1118.99 60.6056C1115.1 62.9183 1116.06 67.41 1116.06 67.41C1116.06 67.41 1109.72 66.4244 1109.8 72.9155C1109.8 72.9155 1104.7 75.1472 1106.93 80.2479C1106.93 80.2479 1102.52 81.3637 1104.61 86.7988C1106.32 91.2306 1110.26 93.5504 1112.66 94.7507C1114.77 95.8068 1118.01 94.2826 1116.88 90.1746C1116.88 90.1746 1119.35 90.8786 1120.75 89.4706C1122.7 87.5275 1121.81 83.8384 1121.81 83.8384C1121.81 83.8384 1124.27 84.5424 1126.03 83.1344C1128.18 81.4165 1127.09 78.2062 1127.09 78.2062C1127.88 78.1001 1128.62 77.7819 1129.24 77.2859C1129.86 76.7899 1130.33 76.1345 1130.61 75.3901C1132.02 71.87 1126.74 67.6458 1126.74 67.6458L1128.5 62.7177Z" fill="#A15842"/>
<path d="M1106.67 80.4487C1109.77 84.2105 1113.19 87.6999 1116.88 90.8788" stroke="#30242A" stroke-width="4" stroke-miterlimit="10" stroke-linecap="round"/>
<path d="M1109.84 72.8838C1113.47 77.3219 1117.61 81.3146 1122.18 84.7783" stroke="#30242A" stroke-width="4" stroke-miterlimit="10" stroke-linecap="round"/>
<path d="M1115.47 67.7061C1118.8 72.0768 1122.8 75.8879 1127.33 78.9951" stroke="#30242A" stroke-width="4" stroke-miterlimit="10" stroke-linecap="round"/>
<path d="M1124.1 64.6538C1124.1 64.6538 1127.4 67.4312 1129.6 69.582" stroke="#30242A" stroke-width="4" stroke-miterlimit="10" stroke-linecap="round"/>
<path d="M1206.8 33.0503L1204.94 35.0955L1203.71 36.4542C1202.92 39.1999 1208.64 43.5754 1216.58 46.2859C1224.53 48.9964 1231.72 49.0211 1232.77 46.3669L1232.63 44.5364L1232.41 41.7802C1229.42 42.4842 1224.25 41.9175 1218.71 40.0201C1213.17 38.1228 1208.73 35.444 1206.8 33.0503Z" fill="#FFBE21"/>
<path d="M1220.86 33.7612C1216.7 32.3531 1213.16 30.4734 1210.84 28.6147L1206.8 33.0501C1208.73 35.4438 1213.18 38.1402 1218.72 40.0305C1224.25 41.9208 1229.43 42.4946 1232.41 41.7905L1231.93 35.8063C1228.96 35.8592 1225.01 35.1762 1220.86 33.7612Z" fill="#FF7235"/>
<path d="M1215.15 23.8696L1210.84 28.6147C1213.16 30.4734 1216.7 32.3461 1220.86 33.7612C1225.01 35.1763 1228.95 35.8732 1231.93 35.8099L1231.41 29.4138C1225.67 28.7196 1220.13 26.8311 1215.15 23.8696Z" fill="#FFBE21"/>
<path d="M1225.13 21.223C1223.25 20.5873 1221.42 19.8192 1219.65 18.9243L1215.15 23.8525C1220.13 26.814 1225.67 28.7025 1231.41 29.3967L1230.87 22.7366C1228.93 22.3665 1227.01 21.8607 1225.13 21.223Z" fill="#FF7235"/>
<path d="M1230.87 22.7543L1229.67 7.89941L1219.65 18.9244C1221.42 19.8193 1223.25 20.5874 1225.13 21.2231C1227.01 21.8667 1228.93 22.3784 1230.87 22.7543Z" fill="#FFBE21"/>
<path d="M1230.52 10.842C1233.51 10.842 1235.94 8.41491 1235.94 5.42098C1235.94 2.42705 1233.51 0 1230.52 0C1227.52 0 1225.1 2.42705 1225.1 5.42098C1225.1 8.41491 1227.52 10.842 1230.52 10.842Z" fill="#FF7235"/>
<path d="M439.211 139H245.724C237.04 139 230 146.04 230 154.724V303.858C230 312.542 237.04 319.582 245.724 319.582H439.211C447.896 319.582 454.936 312.542 454.936 303.858V154.724C454.936 146.04 447.896 139 439.211 139Z" fill="#F5EBDD"/>
<path d="M438.075 140.39C442.195 140.39 446.146 142.025 449.059 144.935C451.972 147.845 453.609 151.793 453.609 155.908V303.092C453.609 307.207 451.972 311.155 449.059 314.065C446.146 316.975 442.195 318.61 438.075 318.61H246.925C242.805 318.61 238.854 316.975 235.941 314.065C233.028 311.155 231.391 307.207 231.391 303.092V155.908C231.391 151.793 233.028 147.845 235.941 144.935C238.854 142.025 242.805 140.39 246.925 140.39H438.075ZM438.075 139H246.925C242.438 139.005 238.136 140.787 234.962 143.957C231.789 147.127 230.005 151.425 230 155.908V303.092C230.005 307.575 231.789 311.873 234.962 315.043C238.136 318.213 242.438 319.995 246.925 320H438.075C442.562 319.995 446.864 318.213 450.038 315.043C453.211 311.873 454.995 307.575 455 303.092V155.908C454.995 151.425 453.211 147.127 450.038 143.957C446.864 140.787 442.562 139.005 438.075 139Z" fill="white"/>
<path d="M383.271 214.456C383.271 214.456 375.53 214.879 369.758 211.667C364.29 208.623 363.409 203.856 365.316 194.422C365.316 194.422 361.898 192.393 362.24 190.364C362.462 189.028 366.341 187.659 366.341 187.659C366.826 185.082 367.441 181.187 368.439 177.204C370.936 177.689 373.472 177.947 376.016 177.975C383.644 186.465 391.972 186.983 391.972 186.983C393.178 185.2 394.814 183.742 396.733 182.742L408.11 187.229C408.218 187.593 408.307 187.962 408.376 188.335C409.958 197.211 398.807 200.508 398.807 200.508C401.056 209.009 408.376 212.343 413.871 213.652L413.407 217.875H382.697L383.271 214.456Z" fill="#EAA58B"/>
<path d="M309.716 281.784C283.06 274.006 281.351 211.789 281.351 211.789L295.257 194.084C295.257 194.084 292.629 181.356 295.363 178.989C298.664 176.132 302.823 185.076 307.324 196.234C312.054 207.958 320.888 242.438 321.571 244.805C321.571 244.805 328.201 241.721 336.058 238.137L337.172 241.762L347.309 275.572C336.195 280.073 320.444 284.915 309.716 281.784Z" fill="#EAA58B"/>
<path d="M398.807 200.508C398.807 200.508 409.958 197.211 408.376 188.335C408.307 187.962 408.218 187.593 408.11 187.229L416.397 190.486C416.397 190.719 416.359 190.939 416.342 191.162L413.871 213.652C408.366 212.343 401.056 209.009 398.807 200.508Z" fill="#A15842"/>
<path d="M391.972 186.983C391.972 186.983 383.644 186.465 376.016 177.975C373.472 177.948 370.936 177.689 368.439 177.204C368.863 175.513 369.359 173.806 369.946 172.172L396.733 182.743C394.814 183.743 393.178 185.2 391.972 186.983Z" fill="#A15842"/>
<path d="M408.11 187.23L396.733 182.743C401.432 180.383 406.589 182.104 408.11 187.23Z" fill="#30242A"/>
<path d="M396.733 182.743L369.946 172.172C370.879 169.572 372.041 167.168 373.518 165.342C379.239 158.265 393.284 153.128 405.683 162.092C417.621 170.725 416.893 184.443 416.397 190.496L408.11 187.226C406.589 182.103 401.432 180.382 396.733 182.743Z" fill="#30242A"/>
<path d="M364.8 232.754L365.613 225.795C375.025 223.079 381.826 222.948 381.826 222.948L382.68 217.875H413.407L412.925 222.271C415.97 222.262 419.009 222.519 422.009 223.039L417.709 232.754H364.8Z" fill="#4756DF"/>
<path d="M408.766 253.042H362.424L363.61 242.897H413.243L408.766 253.042Z" fill="#4756DF"/>
<path d="M404.285 263.186L399.808 273.33H360.124L360.531 269.489L360.497 269.506L361.238 263.186H404.285Z" fill="#4756DF"/>
<path d="M392.314 288.763C392.314 288.763 370.042 290.231 358.139 292.144L359.055 283.475H394.73L392.314 288.763Z" fill="#4756DF"/>
<path d="M363.61 242.898L364.8 232.753H417.72L413.243 242.898H363.61Z" fill="#FFB494"/>
<path d="M408.766 253.042L404.285 263.186H361.239L362.424 253.042H408.766Z" fill="#FFB494"/>
<path d="M398.807 274.561L394.73 283.474H359.055L360.124 273.33H399.388L398.807 274.561Z" fill="#FFB494"/>
<path d="M336.082 238.122C339.965 236.351 344.144 234.444 347.968 232.753C351.321 231.258 354.403 229.906 356.772 228.912C359.654 227.699 362.606 226.658 365.613 225.794L364.8 232.753L363.61 242.897L362.424 253.041L361.239 263.185L360.497 269.505C360.155 269.681 357.144 271.287 352.582 273.33C351.065 274.006 349.376 274.736 347.562 275.473L347.316 275.571L337.172 241.757L336.058 238.133L336.082 238.122Z" fill="#4756DF"/>
<path d="M394.73 283.474L398.807 274.561L399.388 273.33H399.809L398.913 275.359L432.217 287.343C426.605 298.4 420.255 307.888 415.553 312.432C399.149 328.325 356.191 318.424 356.191 318.424C356.191 318.424 351.304 322.238 344.811 323.591C333.191 346.246 326.8 338.374 326.8 338.374C326.8 338.374 322.699 342.77 319.623 338.036C313.472 338.374 313.814 334.655 319.282 321.806C313.13 329.245 307.006 329.363 306.876 327.311C306.534 321.9 321.913 303.979 336.028 298.136C344.517 294.623 358.139 292.144 358.139 292.144C370.042 290.247 392.314 288.763 392.314 288.763L394.73 283.474Z" fill="#EAA58B"/>
<path d="M422.009 223.039C428.348 224.114 436.478 226.667 441.174 232.754C443.262 235.459 444.674 238.84 444.933 243.114C445.709 255.426 439.612 272.749 432.206 287.343L398.913 275.359L422.009 223.039Z" fill="#4756DF"/>
<path d="M388.999 218.335L388.315 224.3" stroke="#30242A" stroke-width="4" stroke-linecap="round" stroke-linejoin="round"/>
<path d="M394.809 218.335L394.125 224.3" stroke="#30242A" stroke-width="4" stroke-linecap="round" stroke-linejoin="round"/>
<path d="M383.251 215.17C385.483 215.005 387.665 214.432 389.686 213.479" stroke="#A15842" stroke-width="4" stroke-miterlimit="10" stroke-linecap="round"/>
<path d="M318.544 321.637C319.859 318.749 321.366 315.618 322.723 313.244" stroke="#A15842" stroke-width="4" stroke-miterlimit="10" stroke-linecap="round"/>
<path d="M329.141 316.612C324.873 324.031 321.575 332.383 319.572 338.019" stroke="#A15842" stroke-width="4" stroke-miterlimit="10" stroke-linecap="round"/>
<path d="M336.714 321.007C333.639 326.59 330.143 333.326 327.62 338.344" stroke="#A15842" stroke-width="4" stroke-miterlimit="10" stroke-linecap="round"/>
<path d="M360.087 269.364L361.32 256.762" stroke="#30242A" stroke-width="4" stroke-linecap="round" stroke-linejoin="round"/>
<path d="M322.344 244.669L324.647 253.596" stroke="#A15842" stroke-width="4" stroke-miterlimit="10" stroke-linecap="round"/>
<path d="M413.065 221.595H408.824" stroke="#30242A" stroke-width="4" stroke-linecap="round" stroke-linejoin="round"/>
<path d="M381.098 222.981L380.455 226.788" stroke="#30242A" stroke-width="4" stroke-linecap="round" stroke-linejoin="round"/>
<path d="M373.757 164.541L416.817 180.772" stroke="#4756DF" stroke-width="4" stroke-miterlimit="10" stroke-linecap="round"/>
<path d="M392.895 287.961L402.225 287.41" stroke="#A15842" stroke-width="4" stroke-miterlimit="10" stroke-linecap="round"/>
<path d="M392.553 288.299L405.406 260.142" stroke="#30242A" stroke-width="4" stroke-linecap="round" stroke-linejoin="round"/>
<path d="M294.084 191.129C294.87 194.196 295.971 198.23 297.071 201.307C297.071 201.307 291.262 211.451 297.413 223.286" stroke="#A15842" stroke-width="4" stroke-miterlimit="10" stroke-linecap="round"/>
<path d="M280.356 291.17H295.185C295.286 291.17 295.384 291.131 295.456 291.059C295.527 290.988 295.568 290.892 295.568 290.792V280.039C295.568 279.938 295.527 279.842 295.456 279.771C295.384 279.7 295.286 279.66 295.185 279.66H280.356C278.815 279.66 277.338 280.266 276.248 281.344C275.159 282.422 274.546 283.884 274.546 285.409C274.545 286.165 274.694 286.913 274.985 287.612C275.276 288.311 275.704 288.947 276.243 289.482C276.783 290.017 277.424 290.442 278.13 290.732C278.836 291.021 279.592 291.17 280.356 291.17V291.17Z" stroke="#A15842" stroke-width="8" stroke-miterlimit="10"/>
<path d="M299.614 277.908C311.852 277.908 317.511 268.258 317.511 268.258L309.282 303.671H289.946L281.72 268.258C283.63 271.237 286.274 273.685 289.405 275.374C292.535 277.062 296.049 277.934 299.614 277.908Z" fill="#FF7235"/>
<path d="M299.614 277.908C296.049 277.934 292.535 277.062 289.405 275.374C286.274 273.685 283.63 271.237 281.72 268.258H317.511C317.511 268.258 311.852 277.908 299.614 277.908Z" fill="#A15842"/>
<path d="M396.521 193.192L401.647 189.472" stroke="#A15842" stroke-width="4" stroke-miterlimit="10" stroke-linecap="round"/>
<path d="M372.366 189.018C371.583 189.018 370.948 188.39 370.948 187.615C370.948 186.84 371.583 186.212 372.366 186.212C373.149 186.212 373.784 186.84 373.784 187.615C373.784 188.39 373.149 189.018 372.366 189.018Z" fill="#30242A"/>
<path d="M425.727 193.618L360.606 169.187" stroke="#30242A" stroke-width="4" stroke-linecap="round" stroke-linejoin="round"/>
<path d="M373.73 197.171C373.388 197.847 371.484 199.403 369.646 198.344" stroke="#A15842" stroke-width="4" stroke-miterlimit="10" stroke-linecap="round"/>
<path d="M282.451 223.644C283.278 222.819 283.914 221.425 283.743 219.228C283.743 219.228 286.819 220.918 288.869 219.228C291.562 217.006 290.578 213.817 290.578 213.817C290.578 213.817 293.654 214.832 295.021 212.465C296.504 209.898 294.679 206.378 294.679 206.378C294.679 206.378 297.136 206.716 297.755 204.349C298.541 201.353 296.897 198.628 295.168 196.657" stroke="#A15842" stroke-width="8" stroke-miterlimit="10" stroke-linecap="round"/>
<path d="M336.071 160.309L287.59 142.088C284.28 140.843 282.616 137.18 283.874 133.905L297.196 99.2033C298.454 95.9283 302.156 94.2818 305.466 95.5259L353.947 113.747C357.257 114.991 358.921 118.655 357.664 121.93L344.341 156.632C343.084 159.907 339.381 161.553 336.071 160.309Z" fill="#30242A"/>
<path d="M278.868 244.034C278.332 245.431 276.753 246.133 275.342 245.603C273.93 245.072 273.22 243.51 273.757 242.113L309.108 150.033C309.644 148.636 311.223 147.934 312.635 148.465C314.046 148.995 314.756 150.558 314.22 151.954L278.868 244.034Z" fill="#30242A"/>
<path d="M315.037 117.151C316.608 116.484 318.382 116.461 319.97 117.088C321.558 117.714 322.829 118.938 323.506 120.491L324.251 122.209L325.987 121.469C327.552 120.826 329.31 120.82 330.88 121.45C332.449 122.08 333.705 123.297 334.376 124.837C335.046 126.376 335.076 128.115 334.461 129.677C333.845 131.239 332.633 132.498 331.086 133.182L329.35 133.922L317.515 138.967L312.413 127.254L311.668 125.54C311.331 124.77 311.151 123.942 311.138 123.104C311.125 122.265 311.28 121.433 311.593 120.653C311.906 119.874 312.371 119.163 312.962 118.562C313.553 117.961 314.258 117.481 315.037 117.151Z" fill="#FFB494"/>
<path d="M285.694 190.527C282.513 192.417 283.196 196.079 283.196 196.079C283.196 196.079 276.795 195.21 276.983 201.685C276.983 201.685 271.881 204.005 274.222 209.053C274.222 209.053 270.712 209.959 272.465 215.508C274.174 220.919 277.67 224.33 279.984 224.638C281.207 224.8 284.085 223.624 283.743 219.228C283.743 219.228 286.819 220.919 288.869 219.228C291.562 217.006 290.578 213.818 290.578 213.818C290.578 213.818 293.654 214.832 295.021 212.465C296.504 209.899 294.679 206.379 294.679 206.379C294.679 206.379 297.136 206.717 297.755 204.35C299.067 199.355 293.623 195.115 292.287 193.867L293.312 191.162C293.312 191.162 288.869 188.64 285.694 190.527Z" fill="#EAA58B"/>
<path d="M295.872 207.599C291.993 205.34 286.115 201.175 282.813 196.19" stroke="#A15842" stroke-width="4" stroke-miterlimit="10" stroke-linecap="round"/>
<path d="M291.368 214.64C285.734 211.41 280.772 207.149 276.747 202.084" stroke="#A15842" stroke-width="4" stroke-miterlimit="10" stroke-linecap="round"/>
<path d="M283.535 219.658C280.801 217.629 277.041 213.909 273.87 209.632" stroke="#A15842" stroke-width="4" stroke-miterlimit="10" stroke-linecap="round"/>
<path d="M248.211 19H54.7244C46.04 19 39 26.04 39 34.7244V183.858C39 192.542 46.04 199.582 54.7244 199.582H248.211C256.896 199.582 263.936 192.542 263.936 183.858V34.7244C263.936 26.04 256.896 19 248.211 19Z" fill="#F5EBDD"/>
<path d="M247.999 19.3973C252.138 19.3973 256.106 21.0413 259.033 23.9678C261.959 26.8942 263.603 30.8632 263.603 35.0018V182.998C263.603 187.137 261.959 191.106 259.033 194.032C256.106 196.959 252.138 198.603 247.999 198.603H56.0006C51.8624 198.603 47.8936 196.959 44.9674 194.032C42.0411 191.106 40.3972 187.137 40.3972 182.998V35.0018C40.3972 30.8632 42.0411 26.8942 44.9674 23.9678C47.8936 21.0413 51.8624 19.3973 56.0006 19.3973H247.999ZM247.999 18H56.0006C51.4932 18.0046 47.1717 19.7974 43.9845 22.9848C40.7972 26.1723 39.0046 30.4941 39 35.0018V182.998C39.0046 187.506 40.7972 191.828 43.9845 195.015C47.1717 198.203 51.4932 199.995 56.0006 200H247.999C252.507 199.995 256.828 198.203 260.016 195.015C263.203 191.828 264.995 187.506 265 182.998V35.0018C264.995 30.4941 263.203 26.1723 260.016 22.9848C256.828 19.7974 252.507 18.0046 247.999 18Z" fill="white"/>
<path d="M34.1589 94.6709H202.3V104.815H34.1589V94.6709Z" fill="#FFB494"/>
<path d="M133.942 85.1465L130.191 95.3105L171.602 110.272C172.964 110.764 174.468 110.701 175.783 110.096C177.098 109.491 178.116 108.394 178.614 107.046C179.111 105.698 179.047 104.21 178.436 102.909C177.824 101.608 176.715 100.6 175.353 100.108L133.942 85.1465Z" fill="#30242A"/>
<path d="M166.621 96.9536L162.869 107.118L171.601 110.272C172.963 110.765 174.467 110.701 175.782 110.096C177.097 109.491 178.116 108.394 178.613 107.046C179.11 105.698 179.046 104.21 178.435 102.909C177.823 101.608 176.714 100.601 175.352 100.108L166.621 96.9536Z" fill="#30242A"/>
<path d="M125.953 99.8577C119.347 99.8577 113.992 94.5591 113.992 88.0229C113.992 81.4866 119.347 76.188 125.953 76.188C132.559 76.188 137.915 81.4866 137.915 88.0229C137.915 94.5591 132.559 99.8577 125.953 99.8577Z" fill="#4756DF"/>
<path d="M178.484 106.966C192.837 112.038 210.824 119.531 222.57 104.937C237.265 86.6776 208.558 67.7418 200.698 91.7497C191.833 118.828 246.041 137.882 232.139 162.421C219.494 184.738 179.687 160.689 156.612 168.845C137.474 175.608 136.975 198.686 136.975 198.686" stroke="#30242A" stroke-width="4" stroke-miterlimit="10" stroke-linecap="round"/>
<path d="M139.76 87.2322C140.443 83.1745 143.177 80.1313 144.886 79.7289C148.963 78.7753 151.215 82.434 151.215 82.434C151.215 82.434 154.442 79.5091 158.953 83.4315C158.953 83.4315 164.12 81.8355 166.352 86.4274C166.352 86.4274 168.648 85.5685 171.198 90.2687C173.272 94.0998 174.957 99.838 172.565 101.427C171.539 102.104 168.464 101.765 167.438 99.3984C167.438 99.3984 166.516 101.089 164.704 100.751C160.945 100.075 160.603 97.0314 160.603 97.0314C160.603 97.0314 160.285 98.1777 158.211 98.384C154.848 98.7221 153.085 95.3407 153.085 95.3407C153.085 95.3407 151.81 96.1827 149.326 95.3407C146.007 94.2147 145.149 89.3016 145.149 89.3016L139.76 87.2322Z" fill="#A15842"/>
<path d="M10.3571 142.342C4.63705 136.444 5.56292 126.381 12.4251 119.865C19.2874 113.35 29.4874 112.849 35.2074 118.747C40.9275 124.644 40.0016 134.707 33.1394 141.223C26.2772 147.739 16.0772 148.239 10.3571 142.342Z" fill="#30242A"/>
<path d="M40.3104 132.543C40.3104 132.543 28.3491 125.104 26.6404 111.578" stroke="black" stroke-width="4" stroke-linecap="round" stroke-linejoin="round"/>
<path d="M76.5151 121.493C73.6425 112.523 77.6981 103.249 85.5736 100.78C93.4491 98.3112 102.162 103.582 105.035 112.553C107.907 121.524 103.852 130.797 95.9763 133.266C88.1008 135.735 79.3877 130.464 76.5151 121.493Z" fill="#30242A"/>
<path d="M30.0202 116.386C30.3312 115.314 11.5144 126.784 15.3249 130.588C18.9202 134.159 28.455 121.803 30.0202 116.386Z" fill="#4756DF"/>
<path d="M29.87 117.053C30.4851 115.744 14.2622 99.3545 11.5453 103.923C8.93432 108.319 29.2548 118.358 29.87 117.053Z" fill="#4756DF"/>
<path d="M48.5124 119.355C52.9552 118.002 62.5242 117.326 67.9922 116.65C79.6118 110.563 76.536 94.6709 76.536 94.6709C75.8525 94.3328 64.7285 92.3344 66.263 83.7389C67.63 75.9617 76.8812 75.9617 81.9596 81.453C81.9596 81.453 89.1808 78.4402 91.2313 68.6342C91.2313 68.6342 97.3281 69.3274 101.556 68.2217C102.475 72.2422 102.704 76.6481 103.534 81.1454C103.534 81.1454 107.977 81.4835 108.319 83.1742C108.661 84.9596 105.147 87.0695 105.147 87.0695C107.54 95.665 107.198 103.456 101.826 106.506C97.0411 109.211 91.2313 108.196 91.2313 108.196L91.9148 116.312C97.8995 116.535 103.798 117.794 109.344 120.031C120.687 124.603 147.278 142.01 147.278 142.01C145.228 135.248 136.817 113.918 133.608 100.419C132.241 94.6709 130.874 89.2607 134.292 88.9225C138.031 88.5506 143.519 100.081 143.519 100.081L166.758 108.535C180.459 126.872 196.491 168.385 175.644 178.868C156.847 188.335 114.812 165.342 114.812 165.342L118.571 199.156H50.2212L34.8424 127.132C34.8424 127.132 34.7775 127.065 34.6613 126.933C39.4663 122.821 45.2521 120.346 48.5124 119.355Z" fill="#A15842"/>
<path d="M57.398 112.714H91.6107L91.9148 116.312C94.58 116.387 97.2332 116.694 99.8435 117.232C100.715 117.404 101.638 117.607 102.598 117.847C104.895 118.421 107.149 119.151 109.344 120.032C109.826 120.224 110.342 120.448 110.879 120.684C111.87 121.131 112.929 121.645 114.088 122.216C121.798 126.088 132.399 132.566 139.531 137.054L130.27 155.377L125.622 164.575L123.144 169.474C118.059 167.107 114.812 165.342 114.812 165.342L118.571 199.156H50.2212L34.8424 127.133C34.022 126.227 33.2628 125.269 32.5698 124.265V124.167L57.398 112.714Z" fill="#FFBE21"/>
<path d="M106.166 122.287L110.879 120.684C111.87 121.13 112.929 121.644 114.088 122.216L110.226 128.468L117.898 138.822L107.782 134.683L102.147 144.966L101.504 133.645L91.7371 131.575L100.11 126.398L99.8434 117.231C100.715 117.404 101.638 117.607 102.598 117.847L106.166 122.287Z" fill="#FF7235"/>
<path d="M123.247 161.136L114.88 159.902L114.788 157.433L119.118 155.475L115.543 144.939L125.089 151.15L131.09 144.388L130.222 155.36L130.27 155.377L125.622 164.575L123.247 161.136Z" fill="#FF7235"/>
<path d="M70.5451 132.85L66.7073 145.618L62.8728 132.85L50.662 129.398L62.5242 124.566V113.522L69.1507 122.148L78.5694 117.661L72.9886 126.98L81.7067 134.23L70.5451 132.85Z" fill="#FF7235"/>
<path d="M82.1647 196.373L89.3484 185.86L83.1797 176.656L93.5211 180.22L98.8661 171.331L99.4197 182.151L110.735 183.422L100.664 188.376L103.992 199.156H102.229L94.2661 192.572L82.1647 196.373Z" fill="#FF7235"/>
<path d="M78.6652 175.043L70.2957 167.797L60.877 174.009L65.0634 163.655L57.7363 155.719L68.2007 157.443L73.0843 148.814L74.1335 158.133L83.8973 157.788L75.5279 164L78.6652 175.043Z" fill="#FF7235"/>
<path d="M91.2313 68.6343C89.1808 78.4403 81.9597 81.4531 81.9597 81.4531C76.8813 75.9719 67.6471 75.9719 66.263 83.7389C64.7286 92.3344 75.8525 94.3328 76.5361 94.671C76.5361 94.671 79.6118 110.563 67.9923 116.65C62.5243 117.326 52.9552 118.003 48.5125 119.355C45.2522 120.346 39.4664 122.821 34.6613 126.933C32.9526 125.026 19.9455 109.529 32.1084 94.3328C40.5531 83.7761 54.4316 85.5852 54.4316 85.5852C53.9703 80.1006 53.0646 65.9393 65.0498 57.2593C77.035 48.5792 92.2942 53.1475 97.834 60.0016C99.8127 62.4463 100.876 65.2292 101.556 68.2217C97.3282 69.3275 91.2313 68.6343 91.2313 68.6343Z" fill="#30242A"/>
<path d="M144.151 99.8174C144.637 100.926 145.136 102.184 145.57 103.463C145.57 103.463 153.43 105.153 155.545 110.394" stroke="#30242A" stroke-width="4" stroke-miterlimit="10" stroke-linecap="round"/>
<path d="M146.294 141.341L150.354 151.864" stroke="#30242A" stroke-width="4" stroke-linecap="round" stroke-linejoin="round"/>
<path d="M114.129 152.831L115.55 165.484" stroke="#724342" stroke-width="4" stroke-linecap="round" stroke-linejoin="round"/>
<path d="M92.5983 109.211C89.4556 108.722 86.3898 107.833 83.477 106.567" stroke="#30242A" stroke-width="4" stroke-miterlimit="10" stroke-linecap="round"/>
<path d="M77.3254 87.354L72.8827 84.6489" stroke="#30242A" stroke-width="4" stroke-miterlimit="10" stroke-linecap="round"/>
<path d="M53.9121 85.4429C54.165 87.9485 54.5068 91.083 54.8383 93.5582" stroke="black" stroke-width="4" stroke-miterlimit="10" stroke-linecap="round"/>
<path d="M78.9625 91.4655L80.2065 98.9451C80.2612 99.2738 80.2296 99.6108 80.1149 99.924C80.0002 100.237 79.8061 100.516 79.5512 100.733C79.2963 100.951 78.9891 101.1 78.6592 101.167C78.3294 101.233 77.9878 101.214 77.6672 101.113L71.0099 98.9992C70.6892 98.8974 70.4004 98.7158 70.1711 98.4717C69.9418 98.2276 69.7797 97.9294 69.7004 97.6055C69.6212 97.2816 69.6274 96.943 69.7184 96.6222C69.8095 96.3014 69.9824 96.0091 70.2205 95.7734L75.6167 90.397C75.8723 90.1391 76.1954 89.9568 76.5499 89.8704C76.9043 89.784 77.2761 89.797 77.6234 89.908C77.9708 90.0189 78.2801 90.2234 78.5166 90.4985C78.7531 90.7736 78.9075 91.1085 78.9625 91.4655Z" fill="#F4E6D8"/>
<path d="M94.9461 89.5781C95.2571 94.0483 99.9118 94.3527 101.005 91.1775L94.9461 89.5781Z" stroke="#30242A" stroke-width="4" stroke-linecap="round" stroke-linejoin="round"/>
<path d="M94.1943 81.3311C95.0213 81.7335 97.9741 81.818 98.931 79.4814" stroke="#30242A" stroke-width="4" stroke-linecap="round" stroke-linejoin="round"/>
<path d="M48.5124 119.355L48.6184 173.917C48.6184 173.917 82.2125 154.018 84.8098 153.859C86.7202 153.74 88.1419 158.021 84.6936 161.558C93.9893 159.85 103.227 158.954 104.679 161.754C105.554 163.445 104.129 165.203 104.129 165.203C105.243 165.342 106.33 165.633 106.952 166.356C108.445 168.091 106.395 170.752 106.395 170.752C108.288 171.655 107.635 174.472 105.927 175.824C101.747 179.128 89.2252 181.488 89.2252 181.488C93.7295 182.032 102.396 182.54 101.932 185.076C101.248 188.795 82.11 188.795 82.11 188.795C74.9332 193.529 69.0175 193.407 69.0175 193.407C69.0175 193.407 51.4925 211.207 33.8171 215.386C-11.6357 223.164 23.9064 138.967 33.4754 128.147C39.415 121.428 48.5124 119.355 48.5124 119.355Z" fill="#A15842"/>
<path d="M91.9934 182.26C89.6012 182.236 87.0106 182.226 84.3962 182.26" stroke="#30242A" stroke-width="4" stroke-linecap="round" stroke-linejoin="round"/>
<path d="M106.716 171.52C101.125 172.534 91.2484 174.404 84.0443 176.162" stroke="#30242A" stroke-width="4" stroke-linecap="round" stroke-linejoin="round"/>
<path d="M104.467 165.366C97.5401 166.302 87.5951 167.733 81.3205 169.062" stroke="#30242A" stroke-width="4" stroke-linecap="round" stroke-linejoin="round"/>
<path d="M83.952 161.159C81.4371 161.724 78.9603 162.443 76.536 163.313" stroke="#30242A" stroke-width="4" stroke-linecap="round" stroke-linejoin="round"/>
<path d="M28.3697 143.113L29.0122 154.434L34.6476 144.161L44.7635 148.3L37.0912 137.946L43.0001 128.377L33.0312 131.758L31.8726 130.297C32.3636 129.546 32.9035 128.828 33.4891 128.147C39.4287 121.428 48.5261 119.355 48.5261 119.355L48.6047 159.898L45.5768 162.836L37.2074 153.767L41.4382 166.224L40.6966 166.765L17.6353 161.862C19.8335 155.264 22.3959 148.79 25.311 142.47L28.3697 143.113Z" fill="#FFBE21"/>
<path d="M43 128.366L37.0911 137.936L44.7634 148.289L34.6476 144.151L29.0121 154.433L28.3696 143.112L25.2939 142.467C27.7066 137.273 30.0169 133.019 31.8418 130.294L33.014 131.751L43 128.366Z" fill="#FF7235"/>
<path d="M41.4245 166.225L37.1937 153.764L45.5632 162.836L48.5911 159.898L48.6082 168.453L40.683 166.766L41.4245 166.225Z" fill="#FF7235"/>
<path d="M49.3019 152.337V172.656" stroke="#724342" stroke-width="4" stroke-linecap="round" stroke-linejoin="round"/>
<path d="M49.4352 172.656C49.4352 172.656 42.8086 176.622 32.5561 182.709" stroke="#30242A" stroke-width="4" stroke-linecap="round" stroke-linejoin="round"/>
<path d="M167.086 86.7217C168.016 90.1335 168.843 94.9385 168.142 99.8685" stroke="#30242A" stroke-width="4" stroke-miterlimit="10" stroke-linecap="round"/>
<path d="M159.845 83.6714C160.743 86.3427 161.694 90.9549 161.133 97.8056" stroke="#30242A" stroke-width="4" stroke-miterlimit="10" stroke-linecap="round"/>
<path d="M151.96 82.3726C152.938 85.2095 154.247 89.6628 153.69 95.3503" stroke="#30242A" stroke-width="4" stroke-miterlimit="10" stroke-linecap="round"/>
<path d="M144.158 85.1021C144.158 85.1021 144.257 87.1985 144.425 89.4979" stroke="#30242A" stroke-width="4" stroke-miterlimit="10" stroke-linecap="round"/>
</svg>
